<svg aria-hidden="true" style="position: absolute; width: 0; height: 0; overflow: hidden;" version="1.1" xmlns="http://www.w3.org/2000/svg" xmlns:xlink="http://www.w3.org/1999/xlink">
<defs>
<symbol id="icon-facebook" viewBox="0 0 32 32">
<path d="M22.667 4h-13.333c-2.945 0-5.333 2.388-5.333 5.333v13.333c0 2.945 2.388 5.333 5.333 5.333h7.495v-9.281h-3.124v-3.633h3.124v-2.673c0-3.099 1.895-4.788 4.66-4.788 0.932-0.003 1.863 0.045 2.789 0.14v3.24h-1.904c-1.507 0-1.8 0.712-1.8 1.763v2.313h3.6l-0.468 3.633h-3.153v9.287h2.115c2.945 0 5.333-2.388 5.333-5.333v-13.333c0-2.945-2.388-5.333-5.333-5.333z"></path>
</symbol>

<symbol id="icon-instagram" viewBox="0 0 32 32">
<path  d="M10.667 4c-3.681 0-6.667 2.985-6.667 6.667v10.667c0 3.681 2.985 6.667 6.667 6.667h10.667c3.681 0 6.667-2.985 6.667-6.667v-10.667c0-3.681-2.985-6.667-6.667-6.667h-10.667zM24 6.667c0.736 0 1.333 0.597 1.333 1.333s-0.597 1.333-1.333 1.333c-0.736 0-1.333-0.597-1.333-1.333s0.597-1.333 1.333-1.333zM16 9.333c3.681 0 6.667 2.985 6.667 6.667s-2.985 6.667-6.667 6.667c-3.681 0-6.667-2.985-6.667-6.667s2.985-6.667 6.667-6.667zM16 12c-2.209 0-4 1.791-4 4v0c0 2.209 1.791 4 4 4v0c2.209 0 4-1.791 4-4v0c0-2.209-1.791-4-4-4v0z"></path>
</symbol>
</defs>
</svg>